<svg width="902" height="508" viewBox="0 0 902 508" fill="none" xmlns="http://www.w3.org/2000/svg">
<g clip-path="url(#clip0_390_19)">
<rect width="902" height="507.375" fill="black"/>
<path d="M53.5173 194.731V179.242H59.0123V194.422C59.0123 198.475 62.1032 201.085 66.9113 201.085C71.6507 201.085 74.6729 198.475 74.6729 194.422V179.242H80.1678V194.044C80.1678 201.188 75.085 205.618 66.8769 205.618C58.7719 205.618 53.5173 201.325 53.5173 194.731ZM84.9765 205V179.242H90.4714V205H84.9765ZM93.3496 212.384L104.992 178.04H109.354L97.7112 212.384H93.3496ZM112.78 194.731V179.242H118.275V194.422C118.275 198.475 121.366 201.085 126.174 201.085C130.913 201.085 133.935 198.475 133.935 194.422V179.242H139.43V194.044C139.43 201.188 134.348 205.618 126.14 205.618C118.034 205.618 112.78 201.325 112.78 194.731ZM165.395 205L157.255 195.659L149.665 205H142.591L153.855 191.606L143.312 179.242H150.387L157.633 188.069L165.12 179.242H172.16L160.861 191.915L172.504 205H165.395ZM187.396 185.768H192.65V205H187.396V185.768ZM187.43 178.04H192.685V183.295H187.43V178.04ZM196.787 205V185.768H201.938V189.923C203.449 186.729 205.991 185.184 209.734 185.184C214.645 185.184 217.393 187.897 217.393 192.705V205H212.241V193.735C212.241 190.919 210.455 189.202 207.536 189.202C205.098 189.202 203.243 190.37 201.938 192.808V205H196.787ZM223.842 199.059V189.717H219.686V185.768H223.945V182.745L228.993 179.242V185.768H238.06V189.717H228.993V197.341C228.993 200.055 230.779 201.463 234.042 201.463C235.209 201.463 236.961 201.291 238.987 200.535L238.3 204.519C236.411 205.309 234.454 205.721 232.462 205.721C227.242 205.721 223.842 202.836 223.842 199.059ZM241.238 195.418C241.238 189.168 245.496 185.184 252.125 185.184C258.272 185.184 262.359 188.687 262.359 194.113V196.586H246.321C247.008 199.745 249.858 201.6 254.46 201.6C257.036 201.6 259.543 201.085 262.325 200.226L261.81 204.21C259.646 205.103 256.933 205.721 253.773 205.721C246.183 205.721 241.238 201.669 241.238 195.418ZM257.585 193.495C257.448 190.507 255.559 189.03 252.09 189.03C248.519 189.03 246.458 190.576 246.252 193.495H257.585ZM265.641 205V185.768H270.655V190.267C272.201 187.004 275.257 185.493 278.383 185.493C278.864 185.493 279.344 185.527 279.825 185.596V190.679C278.657 190.37 277.559 190.232 276.528 190.232C274.227 190.232 272.235 190.988 270.793 192.43V205H265.641ZM281.383 200.398C281.383 195.968 285.882 193.804 295.155 193.804H296.426V193.152C296.426 190.576 294.331 189.133 290.622 189.133C288.252 189.133 286.157 189.614 282.963 190.816V187.038C285.505 185.836 288.012 185.184 291.137 185.184C297.765 185.184 301.474 188.172 301.474 193.529V205H296.46V201.566C294.606 203.97 291.79 205.618 288.046 205.618C283.856 205.618 281.383 203.661 281.383 200.398ZM286.295 199.677C286.295 201.051 287.6 201.875 289.66 201.875C291.858 201.875 294.159 200.982 296.426 199.265V196.895H295.293C288.596 196.895 286.295 197.857 286.295 199.677ZM315.999 185.184C318.643 185.184 320.979 185.699 323.52 186.867L323.692 191.16C321.013 189.855 318.85 189.305 316.652 189.305C312.29 189.305 309.68 191.572 309.68 195.349C309.68 199.059 312.359 201.463 317.064 201.463C319.468 201.463 322.25 200.81 324.07 199.677L323.726 203.935C321.597 205.137 319.124 205.721 316.033 205.721C308.856 205.721 304.391 201.772 304.391 195.418C304.391 189.099 308.821 185.184 315.999 185.184ZM329.589 199.059V189.717H325.433V185.768H329.692V182.745L334.74 179.242V185.768H343.807V189.717H334.74V197.341C334.74 200.055 336.526 201.463 339.789 201.463C340.956 201.463 342.708 201.291 344.734 200.535L344.047 204.519C342.158 205.309 340.201 205.721 338.209 205.721C332.989 205.721 329.589 202.836 329.589 199.059ZM348.046 185.768H353.3V205H348.046V185.768ZM348.08 178.04H353.334V183.295H348.08V178.04ZM368.048 205.721C361.042 205.721 356.543 201.6 356.543 195.487C356.543 189.271 361.077 185.184 368.048 185.184C375.054 185.184 379.553 189.271 379.553 195.487C379.553 201.6 375.054 205.721 368.048 205.721ZM368.048 201.566C371.723 201.566 374.265 199.196 374.265 195.487C374.265 191.709 371.723 189.305 368.048 189.305C364.374 189.305 361.832 191.709 361.832 195.487C361.832 199.196 364.374 201.566 368.048 201.566ZM382.859 205V185.768H388.01V189.923C389.521 186.729 392.063 185.184 395.806 185.184C400.717 185.184 403.465 187.897 403.465 192.705V205H398.313V193.735C398.313 190.919 396.527 189.202 393.608 189.202C391.17 189.202 389.315 190.37 388.01 192.808V205H382.859Z" fill="white"/>
<path d="M428.239 185.184C431.605 185.184 434.524 186.695 436.104 189.339V178.04H441.256V205H436.104V201.188C434.284 204.176 431.536 205.721 428.239 205.721C422.744 205.721 418.623 201.463 418.623 195.384C418.623 189.236 422.71 185.184 428.239 185.184ZM430.094 189.271C426.35 189.271 423.912 191.743 423.912 195.453C423.912 199.162 426.35 201.634 430.094 201.634C433.803 201.634 436.276 199.196 436.276 195.556V195.212C436.276 191.64 433.769 189.271 430.094 189.271ZM444.85 195.418C444.85 189.168 449.109 185.184 455.737 185.184C461.885 185.184 465.972 188.687 465.972 194.113V196.586H449.933C450.62 199.745 453.471 201.6 458.073 201.6C460.648 201.6 463.155 201.085 465.937 200.226L465.422 204.21C463.258 205.103 460.545 205.721 457.386 205.721C449.796 205.721 444.85 201.669 444.85 195.418ZM461.198 193.495C461.06 190.507 459.172 189.03 455.703 189.03C452.131 189.03 450.071 190.576 449.864 193.495H461.198ZM468.739 191.022C468.739 187.176 472.31 185.184 478.801 185.184C482.098 185.184 484.605 185.63 486.803 186.42L487.009 190.61C484.468 189.614 481.858 189.065 478.63 189.065C475.195 189.065 473.478 189.752 473.478 191.022C473.478 194.8 488.314 190.954 488.314 199.574C488.314 203.729 484.811 205.721 478.561 205.721C475.092 205.721 472.07 205.137 469.185 203.798L468.876 199.471C472.207 201.119 475.058 201.806 478.217 201.806C481.583 201.806 483.472 201.016 483.472 199.539C483.472 195.384 468.739 198.99 468.739 191.022ZM491.59 185.768H496.845V205H491.59V185.768ZM491.625 178.04H496.879V183.295H491.625V178.04ZM500.26 194.731C500.26 189.271 504.347 185.184 509.67 185.184C512.898 185.184 515.818 186.695 517.397 188.824V185.768H522.549V202.184C522.549 210.22 516.367 212.727 509.979 212.727C507.094 212.727 504.313 212.212 501.977 211.182L501.428 206.82C504.106 207.988 506.785 208.572 509.464 208.572C514.169 208.572 517.397 206.717 517.397 202.527V200.192C515.749 202.974 512.83 204.485 509.67 204.485C504.381 204.485 500.26 200.261 500.26 194.731ZM505.549 194.903C505.549 198.337 507.919 200.776 511.593 200.776C515.028 200.776 517.569 198.612 517.569 195.349V195.006C517.569 191.263 515.062 188.893 511.593 188.893C507.987 188.893 505.549 191.434 505.549 194.903ZM526.37 205V185.768H531.521V189.923C533.033 186.729 535.574 185.184 539.317 185.184C544.228 185.184 546.976 187.897 546.976 192.705V205H541.824V193.735C541.824 190.919 540.039 189.202 537.119 189.202C534.681 189.202 532.826 190.37 531.521 192.808V205H526.37Z" fill="#9E9E9E"/>
<path d="M65.2206 76.6368C60.891 76.7811 58.3293 82.2292 58.3293 90.3472C58.3293 98.393 60.891 103.913 65.2206 104.058V108.387C57.7159 108.279 52.9173 101.279 52.9173 90.3472C52.9173 79.3428 57.7159 72.4154 65.2206 72.3072V76.6368ZM66.6601 84.5744V80.4252H70.8815V80.1366C70.8815 75.0854 74.5616 72.1268 80.8035 72.1268C83.2569 72.1268 85.3495 72.4515 87.4783 73.101L87.6587 77.3945C85.7464 76.709 83.8703 76.4564 81.8137 76.4564C78.1696 76.4564 76.2935 77.5749 76.2935 80.2448V80.4252H85.4217V84.5744H76.2935V100.63H70.8815V84.5744H66.6601ZM87.5048 95.7953C87.5048 91.141 92.2312 88.8679 101.973 88.8679H103.308V88.1824C103.308 85.4764 101.107 83.961 97.2103 83.961C94.7208 83.961 92.5199 84.4662 89.1644 85.729V81.7602C91.8344 80.4974 94.4682 79.8118 97.7515 79.8118C104.715 79.8118 108.612 82.9508 108.612 88.5793V100.63H103.344V97.022C101.396 99.5476 98.437 101.279 94.5043 101.279C90.1025 101.279 87.5048 99.2229 87.5048 95.7953ZM92.6642 95.0376C92.6642 96.4808 94.0352 97.3467 96.2 97.3467C98.5092 97.3467 100.927 96.4086 103.308 94.6046V92.1151H102.117C95.0816 92.1151 92.6642 93.1254 92.6642 95.0376ZM133.901 80.4252V100.63H128.489V96.4086C126.937 99.7641 124.34 101.388 120.515 101.388C115.356 101.388 112.469 98.5374 112.469 93.4862V80.4252H117.881V92.4038C117.881 95.3623 119.757 97.1663 122.824 97.1663C125.242 97.1663 127.118 95.9396 128.489 93.414V80.4252H133.901ZM137.723 85.9454C137.723 81.9045 141.475 79.8118 148.294 79.8118C151.758 79.8118 154.392 80.2809 156.701 81.1107L156.918 85.5125C154.248 84.4662 151.506 83.8889 148.114 83.8889C144.506 83.8889 142.702 84.6105 142.702 85.9454C142.702 89.9142 158.289 85.8733 158.289 94.9294C158.289 99.295 154.608 101.388 148.042 101.388C144.398 101.388 141.223 100.774 138.192 99.3672L137.867 94.8211C141.367 96.553 144.362 97.2746 147.681 97.2746C151.217 97.2746 153.201 96.4447 153.201 94.8933C153.201 90.5276 137.723 94.316 137.723 85.9454ZM164.256 94.3882V84.5744H159.89V80.4252H164.364V77.2502L169.668 73.57V80.4252H179.193V84.5744H169.668V92.5842C169.668 95.4345 171.544 96.9138 174.972 96.9138C176.198 96.9138 178.038 96.7334 180.167 95.9396L179.446 100.125C177.461 100.955 175.405 101.388 173.312 101.388C167.828 101.388 164.256 98.357 164.256 94.3882ZM183.61 104.058C187.94 103.913 190.501 98.4652 190.501 90.3472C190.501 82.3014 187.94 76.7811 183.61 76.6368V72.3072C191.115 72.4154 195.913 79.415 195.913 90.3472C195.913 101.352 191.115 108.279 183.61 108.387V104.058Z" fill="#838383"/>
<path d="M53.5173 266.532V240.774H70.8951C76.9396 240.774 79.5153 244.587 79.5153 248.845C79.5153 254.34 75.2224 256.916 70.8951 256.916H59.0123V266.532H53.5173ZM69.1779 252.451C72.6123 252.451 74.0204 251.387 74.0204 248.845C74.0204 246.304 72.5093 245.239 68.9375 245.239H59.0123V252.451H69.1779ZM82.7884 239.572H87.9399V266.532H82.7884V239.572ZM91.1865 261.93C91.1865 257.5 95.6855 255.336 104.958 255.336H106.229V254.684C106.229 252.108 104.134 250.665 100.425 250.665C98.0552 250.665 95.9602 251.146 92.7663 252.348V248.57C95.3077 247.368 97.8148 246.716 100.94 246.716C107.568 246.716 111.277 249.704 111.277 255.061V266.532H106.263V263.098C104.409 265.502 101.593 267.15 97.8491 267.15C93.6592 267.15 91.1865 265.193 91.1865 261.93ZM96.0976 261.209C96.0976 262.583 97.4026 263.407 99.4632 263.407C101.661 263.407 103.962 262.514 106.229 260.797V258.427H105.096C98.3986 258.427 96.0976 259.389 96.0976 261.209ZM117.491 260.591V251.249H113.335V247.3H117.594V244.277L122.642 240.774V247.3H131.709V251.249H122.642V258.873C122.642 261.587 124.428 262.995 127.691 262.995C128.859 262.995 130.61 262.823 132.636 262.067L131.949 266.051C130.061 266.841 128.103 267.253 126.111 267.253C120.891 267.253 117.491 264.368 117.491 260.591ZM134.196 251.249V247.3H138.214V247.025C138.214 242.217 141.717 239.401 147.659 239.401C149.994 239.401 151.986 239.71 154.012 240.328L154.184 244.415C152.364 243.762 150.578 243.522 148.621 243.522C145.152 243.522 143.366 244.587 143.366 247.128V247.3H152.055V251.249H143.366V266.532H138.214V251.249H134.196ZM165.375 267.253C158.369 267.253 153.87 263.132 153.87 257.019C153.87 250.803 158.403 246.716 165.375 246.716C172.381 246.716 176.88 250.803 176.88 257.019C176.88 263.132 172.381 267.253 165.375 267.253ZM165.375 263.098C169.05 263.098 171.591 260.728 171.591 257.019C171.591 253.241 169.05 250.837 165.375 250.837C161.7 250.837 159.159 253.241 159.159 257.019C159.159 260.728 161.7 263.098 165.375 263.098ZM180.185 266.532V247.3H185.199V251.799C186.745 248.536 189.801 247.025 192.927 247.025C193.407 247.025 193.888 247.059 194.369 247.128V252.211C193.201 251.902 192.102 251.764 191.072 251.764C188.771 251.764 186.779 252.52 185.337 253.962V266.532H180.185ZM197.156 266.532V247.3H202.307V251.455C203.784 248.193 206.016 246.716 209.382 246.716C213.194 246.716 215.667 248.536 216.457 251.764C217.968 248.33 220.303 246.716 223.806 246.716C228.477 246.716 231.156 249.463 231.156 254.237V266.532H226.004V255.267C226.004 252.486 224.253 250.734 221.539 250.734C219.479 250.734 218.036 251.764 216.731 254.306V266.532H211.58V255.267C211.58 252.486 209.828 250.734 207.115 250.734C205.055 250.734 203.612 251.764 202.307 254.306V266.532H197.156Z" fill="white"/>
<path d="M246.336 256.95C246.336 250.7 250.594 246.716 257.223 246.716C263.37 246.716 267.457 250.219 267.457 255.645V258.118H251.419C252.105 261.277 254.956 263.132 259.558 263.132C262.134 263.132 264.641 262.617 267.423 261.758L266.907 265.742C264.744 266.635 262.031 267.253 258.871 267.253C251.281 267.253 246.336 263.201 246.336 256.95ZM262.683 255.027C262.546 252.039 260.657 250.562 257.188 250.562C253.617 250.562 251.556 252.108 251.35 255.027H262.683ZM270.739 266.532V247.3H275.891V251.455C277.402 248.261 279.943 246.716 283.687 246.716C288.598 246.716 291.345 249.429 291.345 254.237V266.532H286.194V255.267C286.194 252.451 284.408 250.734 281.489 250.734C279.05 250.734 277.196 251.902 275.891 254.34V266.532H270.739ZM294.669 256.263C294.669 250.803 298.756 246.716 304.079 246.716C307.307 246.716 310.226 248.227 311.806 250.356V247.3H316.958V263.716C316.958 271.752 310.776 274.259 304.388 274.259C301.503 274.259 298.721 273.744 296.386 272.714L295.836 268.352C298.515 269.52 301.194 270.104 303.873 270.104C308.578 270.104 311.806 268.249 311.806 264.059V261.724C310.158 264.506 307.238 266.017 304.079 266.017C298.79 266.017 294.669 261.793 294.669 256.263ZM299.958 256.435C299.958 259.869 302.327 262.308 306.002 262.308C309.436 262.308 311.978 260.144 311.978 256.882V256.538C311.978 252.795 309.471 250.425 306.002 250.425C302.396 250.425 299.958 252.966 299.958 256.435ZM320.779 247.3H326.033V266.532H320.779V247.3ZM320.813 239.572H326.068V244.827H320.813V239.572ZM330.169 266.532V247.3H335.321V251.455C336.832 248.261 339.373 246.716 343.117 246.716C348.028 246.716 350.776 249.429 350.776 254.237V266.532H345.624V255.267C345.624 252.451 343.838 250.734 340.919 250.734C338.481 250.734 336.626 251.902 335.321 254.34V266.532H330.169ZM353.927 256.95C353.927 250.7 358.186 246.716 364.814 246.716C370.962 246.716 375.049 250.219 375.049 255.645V258.118H359.01C359.697 261.277 362.548 263.132 367.15 263.132C369.725 263.132 372.232 262.617 375.014 261.758L374.499 265.742C372.335 266.635 369.622 267.253 366.463 267.253C358.873 267.253 353.927 263.201 353.927 256.95ZM370.275 255.027C370.137 252.039 368.249 250.562 364.78 250.562C361.208 250.562 359.148 252.108 358.942 255.027H370.275ZM377.438 256.95C377.438 250.7 381.696 246.716 388.325 246.716C394.472 246.716 398.559 250.219 398.559 255.645V258.118H382.521C383.208 261.277 386.058 263.132 390.66 263.132C393.236 263.132 395.743 262.617 398.525 261.758L398.01 265.742C395.846 266.635 393.133 267.253 389.973 267.253C382.383 267.253 377.438 263.201 377.438 256.95ZM393.785 255.027C393.648 252.039 391.759 250.562 388.29 250.562C384.719 250.562 382.658 252.108 382.452 255.027H393.785ZM401.841 266.532V247.3H406.855V251.799C408.401 248.536 411.457 247.025 414.583 247.025C415.064 247.025 415.544 247.059 416.025 247.128V252.211C414.857 251.902 413.759 251.764 412.728 251.764C410.427 251.764 408.435 252.52 406.993 253.962V266.532H401.841ZM418.812 247.3H424.066V266.532H418.812V247.3ZM418.846 239.572H424.101V244.827H418.846V239.572ZM428.203 266.532V247.3H433.354V251.455C434.865 248.261 437.407 246.716 441.15 246.716C446.061 246.716 448.809 249.429 448.809 254.237V266.532H443.657V255.267C443.657 252.451 441.871 250.734 438.952 250.734C436.514 250.734 434.659 251.902 433.354 254.34V266.532H428.203ZM452.132 256.263C452.132 250.803 456.219 246.716 461.542 246.716C464.771 246.716 467.69 248.227 469.27 250.356V247.3H474.421V263.716C474.421 271.752 468.239 274.259 461.851 274.259C458.967 274.259 456.185 273.744 453.849 272.714L453.3 268.352C455.979 269.52 458.657 270.104 461.336 270.104C466.041 270.104 469.27 268.249 469.27 264.059V261.724C467.621 264.506 464.702 266.017 461.542 266.017C456.253 266.017 452.132 261.793 452.132 256.263ZM457.421 256.435C457.421 259.869 459.791 262.308 463.466 262.308C466.9 262.308 469.441 260.144 469.441 256.882V256.538C469.441 252.795 466.934 250.425 463.466 250.425C459.86 250.425 457.421 252.966 457.421 256.435Z" fill="#9E9E9E"/>
<path d="M53.5173 328.064V302.306H70.8951C76.9396 302.306 79.5153 306.119 79.5153 310.377C79.5153 315.872 75.2224 318.448 70.8951 318.448H59.0123V328.064H53.5173ZM69.1779 313.983C72.6123 313.983 74.0204 312.919 74.0204 310.377C74.0204 307.836 72.5093 306.771 68.9375 306.771H59.0123V313.983H69.1779ZM82.8228 328.064V308.832H87.8369V313.331C89.3824 310.068 92.4389 308.557 95.5642 308.557C96.045 308.557 96.5258 308.591 97.0066 308.66V313.743C95.8389 313.434 94.7399 313.296 93.7096 313.296C91.4086 313.296 89.4167 314.052 87.9743 315.494V328.064H82.8228ZM110.07 328.785C103.064 328.785 98.5649 324.664 98.5649 318.551C98.5649 312.335 103.098 308.248 110.07 308.248C117.076 308.248 121.575 312.335 121.575 318.551C121.575 324.664 117.076 328.785 110.07 328.785ZM110.07 324.63C113.745 324.63 116.286 322.26 116.286 318.551C116.286 314.773 113.745 312.369 110.07 312.369C106.395 312.369 103.854 314.773 103.854 318.551C103.854 322.26 106.395 324.63 110.07 324.63ZM133.603 308.248C136.969 308.248 139.888 309.759 141.468 312.403V301.104H146.619V328.064H141.468V324.252C139.648 327.24 136.9 328.785 133.603 328.785C128.108 328.785 123.987 324.527 123.987 318.448C123.987 312.3 128.074 308.248 133.603 308.248ZM135.458 312.335C131.714 312.335 129.276 314.808 129.276 318.517C129.276 322.226 131.714 324.698 135.458 324.698C139.167 324.698 141.64 322.26 141.64 318.62V318.276C141.64 314.704 139.133 312.335 135.458 312.335ZM171.37 308.832V328.064H166.218V324.046C164.742 327.24 162.269 328.785 158.628 328.785C153.717 328.785 150.97 326.072 150.97 321.264V308.832H156.121V320.234C156.121 323.05 157.907 324.767 160.826 324.767C163.127 324.767 164.913 323.599 166.218 321.195V308.832H171.37ZM186.238 308.248C188.883 308.248 191.218 308.763 193.76 309.931L193.931 314.224C191.253 312.919 189.089 312.369 186.891 312.369C182.529 312.369 179.919 314.636 179.919 318.414C179.919 322.123 182.598 324.527 187.303 324.527C189.707 324.527 192.489 323.874 194.309 322.741L193.966 326.999C191.836 328.201 189.364 328.785 186.273 328.785C179.095 328.785 174.63 324.836 174.63 318.482C174.63 312.163 179.061 308.248 186.238 308.248ZM199.828 322.123V312.781H195.672V308.832H199.931V305.81L204.979 302.306V308.832H214.046V312.781H204.979V320.405C204.979 323.119 206.765 324.527 210.028 324.527C211.196 324.527 212.947 324.355 214.973 323.599L214.287 327.583C212.398 328.373 210.44 328.785 208.448 328.785C203.228 328.785 199.828 325.9 199.828 322.123Z" fill="white"/>
<path d="M239.015 308.248C242.381 308.248 245.3 309.759 246.88 312.403V301.104H252.031V328.064H246.88V324.252C245.059 327.24 242.312 328.785 239.015 328.785C233.52 328.785 229.399 324.527 229.399 318.448C229.399 312.3 233.486 308.248 239.015 308.248ZM240.869 312.335C237.126 312.335 234.688 314.808 234.688 318.517C234.688 322.226 237.126 324.698 240.869 324.698C244.579 324.698 247.051 322.26 247.051 318.62V318.276C247.051 314.704 244.544 312.335 240.869 312.335ZM255.626 318.482C255.626 312.232 259.884 308.248 266.513 308.248C272.66 308.248 276.747 311.751 276.747 317.177V319.65H260.709C261.396 322.81 264.246 324.664 268.848 324.664C271.424 324.664 273.931 324.149 276.713 323.29L276.198 327.274C274.034 328.167 271.321 328.785 268.161 328.785C260.571 328.785 255.626 324.733 255.626 318.482ZM271.973 316.559C271.836 313.571 269.947 312.094 266.478 312.094C262.907 312.094 260.846 313.64 260.64 316.559H271.973ZM278.621 308.832H284.494L290.47 323.531L296.411 308.832L302.147 308.866L293.492 328.064H287.276L278.621 308.832ZM302.815 318.482C302.815 312.232 307.073 308.248 313.701 308.248C319.849 308.248 323.936 311.751 323.936 317.177V319.65H307.897C308.584 322.81 311.435 324.664 316.037 324.664C318.613 324.664 321.12 324.149 323.902 323.29L323.386 327.274C321.223 328.167 318.51 328.785 315.35 328.785C307.76 328.785 302.815 324.733 302.815 318.482ZM319.162 316.559C319.025 313.571 317.136 312.094 313.667 312.094C310.095 312.094 308.035 313.64 307.829 316.559H319.162ZM327.184 301.104H332.335V328.064H327.184V301.104ZM347.087 328.785C340.081 328.785 335.582 324.664 335.582 318.551C335.582 312.335 340.115 308.248 347.087 308.248C354.093 308.248 358.592 312.335 358.592 318.551C358.592 324.664 354.093 328.785 347.087 328.785ZM347.087 324.63C350.762 324.63 353.303 322.26 353.303 318.551C353.303 314.773 350.762 312.369 347.087 312.369C343.412 312.369 340.871 314.773 340.871 318.551C340.871 322.26 343.412 324.63 347.087 324.63ZM374.913 328.785C371.547 328.785 368.628 327.274 367.048 324.63V335.448H361.897V308.832H367.048V312.781C368.869 309.793 371.616 308.248 374.913 308.248C380.408 308.248 384.529 312.506 384.529 318.585C384.529 324.733 380.442 328.785 374.913 328.785ZM373.059 324.698C376.802 324.698 379.24 322.226 379.24 318.517C379.24 314.808 376.802 312.335 373.059 312.335C369.349 312.335 366.877 314.773 366.877 318.414V318.757C366.877 322.329 369.384 324.698 373.059 324.698ZM387.822 328.064V308.832H392.974V312.987C394.45 309.725 396.683 308.248 400.048 308.248C403.861 308.248 406.333 310.068 407.123 313.296C408.634 309.862 410.97 308.248 414.473 308.248C419.143 308.248 421.822 310.995 421.822 315.769V328.064H416.671V316.799C416.671 314.018 414.919 312.266 412.206 312.266C410.145 312.266 408.703 313.296 407.398 315.838V328.064H402.246V316.799C402.246 314.018 400.495 312.266 397.782 312.266C395.721 312.266 394.279 313.296 392.974 315.838V328.064H387.822ZM424.996 318.482C424.996 312.232 429.254 308.248 435.882 308.248C442.03 308.248 446.117 311.751 446.117 317.177V319.65H430.078C430.765 322.81 433.616 324.664 438.218 324.664C440.794 324.664 443.301 324.149 446.082 323.29L445.567 327.274C443.404 328.167 440.69 328.785 437.531 328.785C429.941 328.785 424.996 324.733 424.996 318.482ZM441.343 316.559C441.206 313.571 439.317 312.094 435.848 312.094C432.276 312.094 430.216 313.64 430.01 316.559H441.343ZM449.399 328.064V308.832H454.55V312.987C456.062 309.793 458.603 308.248 462.346 308.248C467.258 308.248 470.005 310.961 470.005 315.769V328.064H464.853V316.799C464.853 313.983 463.068 312.266 460.148 312.266C457.71 312.266 455.856 313.434 454.55 315.872V328.064H449.399ZM476.454 322.123V312.781H472.298V308.832H476.557V305.81L481.605 302.306V308.832H490.672V312.781H481.605V320.405C481.605 323.119 483.391 324.527 486.654 324.527C487.822 324.527 489.573 324.355 491.599 323.599L490.912 327.583C489.024 328.373 487.066 328.785 485.074 328.785C479.854 328.785 476.454 325.9 476.454 322.123Z" fill="#9E9E9E"/>
<path d="M58.3654 478.772V473.775C58.3654 473.125 58.1609 472.59 57.752 472.169C57.3431 471.748 56.8139 471.538 56.1645 471.538C55.7315 471.538 55.3467 471.634 55.0099 471.826C54.6732 472.019 54.4086 472.283 54.2162 472.62C54.0237 472.957 53.9275 473.342 53.9275 473.775L53.26 473.396C53.26 472.746 53.4044 472.169 53.693 471.664C53.9816 471.159 54.3845 470.762 54.9017 470.473C55.4188 470.173 56.0021 470.022 56.6516 470.022C57.301 470.022 57.8723 470.167 58.3654 470.455C58.8705 470.744 59.2674 471.147 59.556 471.664C59.8446 472.181 59.989 472.776 59.989 473.45V478.772H58.3654ZM52.3039 478.772V465.891H53.9275V478.772H52.3039ZM66.156 478.952C65.3021 478.952 64.5324 478.76 63.8468 478.375C63.1613 477.978 62.6201 477.443 62.2232 476.769C61.8264 476.096 61.6279 475.332 61.6279 474.478C61.6279 473.636 61.8204 472.879 62.2052 472.205C62.6021 471.532 63.1313 471.002 63.7927 470.618C64.4662 470.221 65.2179 470.022 66.0477 470.022C66.8415 470.022 67.539 470.203 68.1404 470.563C68.7537 470.924 69.2288 471.423 69.5655 472.061C69.9143 472.698 70.0887 473.42 70.0887 474.226C70.0887 474.346 70.0827 474.478 70.0706 474.622C70.0586 474.755 70.0346 474.911 69.9985 475.092H62.7644V473.739H69.1326L68.5372 474.262C68.5372 473.684 68.435 473.197 68.2306 472.8C68.0261 472.392 67.7375 472.079 67.3646 471.862C66.9918 471.634 66.5408 471.52 66.0116 471.52C65.4584 471.52 64.9713 471.64 64.5504 471.88C64.1295 472.121 63.8048 472.458 63.5762 472.891C63.3477 473.324 63.2335 473.835 63.2335 474.424C63.2335 475.025 63.3538 475.555 63.5943 476.012C63.8348 476.457 64.1776 476.805 64.6226 477.058C65.0676 477.298 65.5787 477.419 66.156 477.419C66.637 477.419 67.076 477.334 67.4729 477.166C67.8818 476.998 68.2306 476.745 68.5192 476.408L69.5655 477.473C69.1566 477.954 68.6515 478.321 68.0502 478.573C67.4609 478.826 66.8295 478.952 66.156 478.952ZM71.859 478.772V470.203H73.4826V478.772H71.859ZM73.4826 473.883L72.8692 473.612C72.8692 472.518 73.1218 471.646 73.6269 470.996C74.132 470.347 74.8597 470.022 75.8098 470.022C76.2427 470.022 76.6336 470.1 76.9824 470.257C77.3311 470.401 77.6559 470.648 77.9565 470.996L76.8922 472.097C76.7118 471.904 76.5133 471.766 76.2968 471.682C76.0804 471.598 75.8278 471.556 75.5392 471.556C74.9378 471.556 74.4447 471.748 74.0599 472.133C73.675 472.518 73.4826 473.101 73.4826 473.883ZM82.4619 478.952C81.6801 478.952 80.9706 478.76 80.3331 478.375C79.6957 477.978 79.1906 477.443 78.8178 476.769C78.457 476.096 78.2766 475.338 78.2766 474.496C78.2766 473.654 78.457 472.897 78.8178 472.223C79.1906 471.55 79.6897 471.014 80.3151 470.618C80.9525 470.221 81.6681 470.022 82.4619 470.022C83.1113 470.022 83.6886 470.161 84.1937 470.437C84.7109 470.702 85.1258 471.075 85.4385 471.556C85.7512 472.025 85.9256 472.572 85.9616 473.197V475.777C85.9256 476.39 85.7512 476.938 85.4385 477.419C85.1378 477.9 84.7289 478.279 84.2118 478.555C83.7066 478.82 83.1233 478.952 82.4619 478.952ZM82.7325 477.419C83.5383 477.419 84.1877 477.148 84.6808 476.607C85.1739 476.054 85.4204 475.35 85.4204 474.496C85.4204 473.907 85.3062 473.396 85.0777 472.963C84.8612 472.518 84.5485 472.175 84.1396 471.935C83.7307 471.682 83.2556 471.556 82.7144 471.556C82.1732 471.556 81.6922 471.682 81.2712 471.935C80.8623 472.187 80.5376 472.536 80.2971 472.981C80.0686 473.414 79.9543 473.913 79.9543 474.478C79.9543 475.055 80.0686 475.567 80.2971 476.012C80.5376 476.445 80.8683 476.787 81.2893 477.04C81.7102 477.292 82.1913 477.419 82.7325 477.419ZM85.3122 478.772V476.463L85.6189 474.37L85.3122 472.295V470.203H86.9538V478.772H85.3122ZM89.3176 478.772V465.891H90.9412V478.772H89.3176ZM96.9428 478.952C96.149 478.952 95.4394 478.76 94.8141 478.375C94.1887 477.978 93.6896 477.443 93.3167 476.769C92.9559 476.096 92.7755 475.338 92.7755 474.496C92.7755 473.654 92.9559 472.897 93.3167 472.223C93.6896 471.55 94.1887 471.014 94.8141 470.618C95.4394 470.221 96.149 470.022 96.9428 470.022C97.5802 470.022 98.1575 470.161 98.6746 470.437C99.1918 470.702 99.6067 471.075 99.9194 471.556C100.244 472.025 100.424 472.572 100.461 473.197V475.777C100.424 476.39 100.25 476.938 99.9374 477.419C99.6247 477.9 99.2098 478.279 98.6927 478.555C98.1755 478.82 97.5922 478.952 96.9428 478.952ZM97.2134 477.419C97.7546 477.419 98.2236 477.292 98.6205 477.04C99.0294 476.787 99.3481 476.445 99.5766 476.012C99.8051 475.567 99.9194 475.061 99.9194 474.496C99.9194 473.907 99.7991 473.396 99.5586 472.963C99.3301 472.53 99.0114 472.187 98.6025 471.935C98.2056 471.682 97.7365 471.556 97.1953 471.556C96.6541 471.556 96.1791 471.682 95.7702 471.935C95.3613 472.187 95.0365 472.536 94.796 472.981C94.5675 473.414 94.4533 473.913 94.4533 474.478C94.4533 475.055 94.5675 475.567 94.796 476.012C95.0365 476.445 95.3613 476.787 95.7702 477.04C96.1911 477.292 96.6722 477.419 97.2134 477.419ZM101.453 478.772H99.8111V476.463L100.118 474.37L99.8111 472.295V465.891H101.453V478.772ZM105.043 478.772V468.922C105.043 468.284 105.182 467.731 105.458 467.262C105.735 466.781 106.114 466.402 106.595 466.126C107.088 465.849 107.659 465.711 108.309 465.711C108.802 465.711 109.229 465.795 109.589 465.963C109.95 466.132 110.281 466.378 110.582 466.703L109.517 467.749C109.361 467.581 109.186 467.455 108.994 467.37C108.802 467.274 108.567 467.226 108.291 467.226C107.773 467.226 107.37 467.376 107.082 467.677C106.805 467.978 106.667 468.393 106.667 468.922V478.772H105.043ZM102.933 471.682V470.203H109.391V471.682H102.933ZM114.173 478.952C113.391 478.952 112.682 478.76 112.044 478.375C111.407 477.978 110.902 477.443 110.529 476.769C110.168 476.096 109.988 475.338 109.988 474.496C109.988 473.654 110.168 472.897 110.529 472.223C110.902 471.55 111.401 471.014 112.026 470.618C112.663 470.221 113.379 470.022 114.173 470.022C114.822 470.022 115.4 470.161 115.905 470.437C116.422 470.702 116.837 471.075 117.149 471.556C117.462 472.025 117.636 472.572 117.673 473.197V475.777C117.636 476.39 117.462 476.938 117.149 477.419C116.849 477.9 116.44 478.279 115.923 478.555C115.418 478.82 114.834 478.952 114.173 478.952ZM114.443 477.419C115.249 477.419 115.899 477.148 116.392 476.607C116.885 476.054 117.131 475.35 117.131 474.496C117.131 473.907 117.017 473.396 116.789 472.963C116.572 472.518 116.259 472.175 115.851 471.935C115.442 471.682 114.967 471.556 114.425 471.556C113.884 471.556 113.403 471.682 112.982 471.935C112.573 472.187 112.249 472.536 112.008 472.981C111.78 473.414 111.665 473.913 111.665 474.478C111.665 475.055 111.78 475.567 112.008 476.012C112.249 476.445 112.579 476.787 113 477.04C113.421 477.292 113.902 477.419 114.443 477.419ZM117.023 478.772V476.463L117.33 474.37L117.023 472.295V470.203H118.665V478.772H117.023ZM124.492 478.952C123.783 478.952 123.145 478.796 122.58 478.483C122.027 478.158 121.594 477.713 121.281 477.148C120.968 476.583 120.812 475.927 120.812 475.182V470.203H122.436V475.11C122.436 475.579 122.514 475.987 122.67 476.336C122.839 476.673 123.079 476.932 123.392 477.112C123.705 477.292 124.071 477.383 124.492 477.383C125.13 477.383 125.629 477.184 125.99 476.787C126.35 476.378 126.531 475.819 126.531 475.11V470.203H128.154V475.182C128.154 475.927 127.998 476.583 127.685 477.148C127.373 477.713 126.94 478.158 126.386 478.483C125.845 478.796 125.214 478.952 124.492 478.952ZM133.054 478.952C132.573 478.952 132.116 478.892 131.683 478.772C131.263 478.639 130.872 478.459 130.511 478.23C130.15 477.99 129.837 477.707 129.573 477.383L130.619 476.336C130.932 476.721 131.293 477.01 131.701 477.202C132.11 477.383 132.567 477.473 133.073 477.473C133.578 477.473 133.969 477.389 134.245 477.22C134.522 477.04 134.66 476.793 134.66 476.481C134.66 476.168 134.546 475.927 134.317 475.759C134.101 475.579 133.818 475.434 133.469 475.326C133.121 475.206 132.748 475.092 132.351 474.983C131.966 474.863 131.599 474.713 131.25 474.532C130.902 474.352 130.613 474.105 130.385 473.793C130.168 473.48 130.06 473.065 130.06 472.548C130.06 472.031 130.186 471.586 130.439 471.213C130.691 470.828 131.04 470.533 131.485 470.329C131.942 470.124 132.489 470.022 133.127 470.022C133.8 470.022 134.395 470.143 134.913 470.383C135.442 470.612 135.875 470.96 136.211 471.429L135.165 472.476C134.925 472.163 134.624 471.922 134.263 471.754C133.914 471.586 133.518 471.502 133.073 471.502C132.603 471.502 132.243 471.586 131.99 471.754C131.75 471.91 131.629 472.133 131.629 472.422C131.629 472.71 131.738 472.933 131.954 473.089C132.171 473.245 132.453 473.378 132.802 473.486C133.163 473.594 133.536 473.708 133.92 473.829C134.305 473.937 134.672 474.087 135.021 474.28C135.37 474.472 135.652 474.731 135.869 475.055C136.097 475.38 136.211 475.807 136.211 476.336C136.211 477.142 135.923 477.779 135.346 478.249C134.78 478.718 134.017 478.952 133.054 478.952ZM139.346 478.772V466.613H140.97V478.772H139.346ZM137.235 471.682V470.203H143.08V471.682H137.235ZM145.479 478.952C145.143 478.952 144.86 478.838 144.632 478.609C144.415 478.369 144.307 478.086 144.307 477.761C144.307 477.425 144.415 477.148 144.632 476.932C144.86 476.703 145.143 476.589 145.479 476.589C145.816 476.589 146.093 476.703 146.309 476.932C146.538 477.148 146.652 477.425 146.652 477.761C146.652 478.086 146.538 478.369 146.309 478.609C146.093 478.838 145.816 478.952 145.479 478.952ZM152.866 478.952C152.025 478.952 151.261 478.754 150.575 478.357C149.902 477.96 149.367 477.425 148.97 476.751C148.585 476.066 148.393 475.308 148.393 474.478C148.393 473.636 148.585 472.879 148.97 472.205C149.367 471.532 149.902 471.002 150.575 470.618C151.261 470.221 152.025 470.022 152.866 470.022C153.528 470.022 154.141 470.149 154.707 470.401C155.272 470.642 155.759 470.996 156.168 471.465L155.085 472.548C154.821 472.235 154.496 472.001 154.111 471.844C153.738 471.676 153.324 471.592 152.866 471.592C152.325 471.592 151.844 471.718 151.423 471.971C151.002 472.211 150.672 472.548 150.431 472.981C150.191 473.414 150.07 473.913 150.07 474.478C150.07 475.043 150.191 475.543 150.431 475.975C150.672 476.408 151.002 476.751 151.423 477.004C151.844 477.256 152.325 477.383 152.866 477.383C153.324 477.383 153.738 477.304 154.111 477.148C154.496 476.98 154.827 476.739 155.103 476.426L156.168 477.509C155.771 477.966 155.284 478.321 154.707 478.573C154.141 478.826 153.528 478.952 152.866 478.952ZM161.534 478.952C160.692 478.952 159.935 478.754 159.261 478.357C158.588 477.96 158.052 477.425 157.656 476.751C157.259 476.066 157.06 475.302 157.06 474.46C157.06 473.63 157.259 472.885 157.656 472.223C158.052 471.55 158.588 471.014 159.261 470.618C159.935 470.221 160.692 470.022 161.534 470.022C162.364 470.022 163.116 470.221 163.789 470.618C164.475 471.002 165.016 471.532 165.413 472.205C165.81 472.879 166.008 473.63 166.008 474.46C166.008 475.302 165.81 476.066 165.413 476.751C165.016 477.425 164.475 477.96 163.789 478.357C163.116 478.754 162.364 478.952 161.534 478.952ZM161.534 477.383C162.075 477.383 162.556 477.256 162.977 477.004C163.398 476.751 163.729 476.408 163.97 475.975C164.21 475.53 164.33 475.025 164.33 474.46C164.33 473.907 164.204 473.414 163.952 472.981C163.711 472.548 163.38 472.211 162.959 471.971C162.55 471.718 162.075 471.592 161.534 471.592C160.993 471.592 160.512 471.718 160.091 471.971C159.67 472.211 159.339 472.548 159.099 472.981C158.858 473.414 158.738 473.907 158.738 474.46C158.738 475.025 158.858 475.53 159.099 475.975C159.339 476.408 159.67 476.751 160.091 477.004C160.512 477.256 160.993 477.383 161.534 477.383ZM167.837 478.772V470.203H169.461V478.772H167.837ZM173.628 478.772V473.594C173.628 472.957 173.43 472.458 173.033 472.097C172.648 471.724 172.161 471.538 171.572 471.538C171.175 471.538 170.82 471.622 170.507 471.79C170.195 471.959 169.942 472.193 169.75 472.494C169.557 472.794 169.461 473.155 169.461 473.576L168.794 473.251C168.794 472.602 168.932 472.037 169.208 471.556C169.497 471.075 169.888 470.702 170.381 470.437C170.874 470.161 171.427 470.022 172.041 470.022C172.642 470.022 173.183 470.155 173.664 470.419C174.157 470.684 174.542 471.057 174.819 471.538C175.108 472.019 175.252 472.59 175.252 473.251V478.772H173.628ZM179.419 478.772V473.594C179.419 472.957 179.221 472.458 178.824 472.097C178.439 471.724 177.958 471.538 177.381 471.538C176.984 471.538 176.623 471.622 176.298 471.79C175.986 471.959 175.733 472.193 175.541 472.494C175.348 472.794 175.252 473.155 175.252 473.576L174.332 473.251C174.368 472.59 174.542 472.025 174.855 471.556C175.18 471.075 175.595 470.702 176.1 470.437C176.605 470.161 177.158 470.022 177.759 470.022C178.385 470.022 178.944 470.155 179.437 470.419C179.93 470.684 180.321 471.057 180.61 471.538C180.91 472.019 181.061 472.596 181.061 473.269V478.772H179.419Z" fill="#9E9E9E"/>
<path d="M610.354 213.92C653.924 196.492 712.377 209.438 750.909 232.758C785.032 253.409 813.404 285.11 825.823 323.322C832.558 344.045 832.23 385.805 798.147 375.631C764.909 365.709 739.944 329.308 723.667 301.441C705.671 270.631 681.92 224.228 691.354 186.679C699.648 153.665 736.898 131.58 765.689 119.444C804.949 102.895 841.24 109.059 872.337 137.992C886.875 151.518 942.039 232.578 889.725 237.105C869 238.898 846.065 221.475 831.329 209.573C807.045 189.959 797.68 168.805 805.827 137.847C815.381 101.539 852.877 63.7609 891.754 59.0199C911.042 56.6676 932.814 64.9757 938.992 83.5083" stroke="white" stroke-width="45.8517" stroke-linecap="square"/>
<rect width="154.509" height="12.7783" fill="#98F500"/>
<rect x="154.509" width="154.509" height="12.7783" fill="#FF645C"/>
<rect x="309.019" width="154.509" height="12.7783" fill="#5FFFC5"/>
<rect x="463.528" width="154.509" height="12.7783" fill="#FF0ACB"/>
<rect x="618.037" width="70.9907" height="12.7783" fill="#98F500"/>
<rect x="689.028" width="70.9907" height="12.7783" fill="#FF645C"/>
<rect x="760.019" width="70.9907" height="12.7783" fill="#5FFFC5"/>
<rect x="831.009" width="70.9907" height="12.7783" fill="#FF0ACB"/>
</g>
<defs>
<clipPath id="clip0_390_19">
<rect width="902" height="507.375" fill="white"/>
</clipPath>
</defs>
</svg>
