<svg width="902" height="508" viewBox="0 0 902 508" fill="none" xmlns="http://www.w3.org/2000/svg">
<g clip-path="url(#clip0_390_19)">
<rect width="902" height="507.375" fill="black"/>
<path d="M53.5173 194.731V179.242H59.0123V194.422C59.0123 198.475 62.1032 201.085 66.9113 201.085C71.6507 201.085 74.6729 198.475 74.6729 194.422V179.242H80.1678V194.044C80.1678 201.188 75.085 205.618 66.8769 205.618C58.7719 205.618 53.5173 201.325 53.5173 194.731ZM84.9765 205V179.242H90.4714V205H84.9765ZM93.3496 212.384L104.992 178.04H109.354L97.7112 212.384H93.3496ZM112.78 194.731V179.242H118.275V194.422C118.275 198.475 121.366 201.085 126.174 201.085C130.913 201.085 133.935 198.475 133.935 194.422V179.242H139.43V194.044C139.43 201.188 134.348 205.618 126.14 205.618C118.034 205.618 112.78 201.325 112.78 194.731ZM165.395 205L157.255 195.659L149.665 205H142.591L153.855 191.606L143.312 179.242H150.387L157.633 188.069L165.12 179.242H172.16L160.861 191.915L172.504 205H165.395ZM186.503 200.398C186.503 195.968 191.002 193.804 200.275 193.804H201.545V193.152C201.545 190.576 199.45 189.133 195.741 189.133C193.372 189.133 191.277 189.614 188.083 190.816V187.038C190.624 185.836 193.131 185.184 196.257 185.184C202.885 185.184 206.594 188.172 206.594 193.529V205H201.58V201.566C199.725 203.97 196.909 205.618 193.166 205.618C188.976 205.618 186.503 203.661 186.503 200.398ZM191.414 199.677C191.414 201.051 192.719 201.875 194.78 201.875C196.978 201.875 199.279 200.982 201.545 199.265V196.895H200.412C193.715 196.895 191.414 197.857 191.414 199.677ZM210.403 205V185.768H215.555V189.923C217.066 186.729 219.607 185.184 223.351 185.184C228.262 185.184 231.009 187.897 231.009 192.705V205H225.858V193.735C225.858 190.919 224.072 189.202 221.153 189.202C218.714 189.202 216.86 190.37 215.555 192.808V205H210.403ZM235.054 185.768H240.309V205H235.054V185.768ZM235.089 178.04H240.343V183.295H235.089V178.04ZM244.445 205V185.768H249.596V189.923C251.073 186.661 253.306 185.184 256.671 185.184C260.483 185.184 262.956 187.004 263.746 190.232C265.257 186.798 267.592 185.184 271.095 185.184C275.766 185.184 278.445 187.931 278.445 192.705V205H273.293V193.735C273.293 190.954 271.542 189.202 268.829 189.202C266.768 189.202 265.326 190.232 264.021 192.774V205H258.869V193.735C258.869 190.954 257.118 189.202 254.405 189.202C252.344 189.202 250.902 190.232 249.596 192.774V205H244.445ZM281.618 200.398C281.618 195.968 286.117 193.804 295.39 193.804H296.661V193.152C296.661 190.576 294.566 189.133 290.857 189.133C288.487 189.133 286.392 189.614 283.198 190.816V187.038C285.739 185.836 288.247 185.184 291.372 185.184C298 185.184 301.709 188.172 301.709 193.529V205H296.695V201.566C294.84 203.97 292.024 205.618 288.281 205.618C284.091 205.618 281.618 203.661 281.618 200.398ZM286.529 199.677C286.529 201.051 287.834 201.875 289.895 201.875C292.093 201.875 294.394 200.982 296.661 199.265V196.895H295.527C288.83 196.895 286.529 197.857 286.529 199.677ZM307.923 199.059V189.717H303.767V185.768H308.026V182.745L313.074 179.242V185.768H322.141V189.717H313.074V197.341C313.074 200.055 314.86 201.463 318.123 201.463C319.29 201.463 321.042 201.291 323.068 200.535L322.381 204.519C320.492 205.309 318.535 205.721 316.543 205.721C311.323 205.721 307.923 202.836 307.923 199.059ZM326.38 185.768H331.634V205H326.38V185.768ZM326.414 178.04H331.669V183.295H326.414V178.04ZM346.383 205.721C339.376 205.721 334.877 201.6 334.877 195.487C334.877 189.271 339.411 185.184 346.383 185.184C353.389 185.184 357.888 189.271 357.888 195.487C357.888 201.6 353.389 205.721 346.383 205.721ZM346.383 201.566C350.057 201.566 352.599 199.196 352.599 195.487C352.599 191.709 350.057 189.305 346.383 189.305C342.708 189.305 340.166 191.709 340.166 195.487C340.166 199.196 342.708 201.566 346.383 201.566ZM361.193 205V185.768H366.344V189.923C367.855 186.729 370.397 185.184 374.14 185.184C379.051 185.184 381.799 187.897 381.799 192.705V205H376.647V193.735C376.647 190.919 374.861 189.202 371.942 189.202C369.504 189.202 367.649 190.37 366.344 192.808V205H361.193Z" fill="white"/>
<path d="M406.573 185.184C409.939 185.184 412.858 186.695 414.438 189.339V178.04H419.59V205H414.438V201.188C412.618 204.176 409.87 205.721 406.573 205.721C401.079 205.721 396.957 201.463 396.957 195.384C396.957 189.236 401.044 185.184 406.573 185.184ZM408.428 189.271C404.685 189.271 402.246 191.743 402.246 195.453C402.246 199.162 404.685 201.634 408.428 201.634C412.137 201.634 414.61 199.196 414.61 195.556V195.212C414.61 191.64 412.103 189.271 408.428 189.271ZM423.184 195.418C423.184 189.168 427.443 185.184 434.071 185.184C440.219 185.184 444.306 188.687 444.306 194.113V196.586H428.267C428.954 199.745 431.805 201.6 436.407 201.6C438.982 201.6 441.49 201.085 444.271 200.226L443.756 204.21C441.593 205.103 438.879 205.721 435.72 205.721C428.13 205.721 423.184 201.669 423.184 195.418ZM439.532 193.495C439.395 190.507 437.506 189.03 434.037 189.03C430.465 189.03 428.405 190.576 428.199 193.495H439.532ZM447.073 191.022C447.073 187.176 450.644 185.184 457.135 185.184C460.432 185.184 462.939 185.63 465.137 186.42L465.343 190.61C462.802 189.614 460.192 189.065 456.964 189.065C453.529 189.065 451.812 189.752 451.812 191.022C451.812 194.8 466.648 190.954 466.648 199.574C466.648 203.729 463.145 205.721 456.895 205.721C453.426 205.721 450.404 205.137 447.519 203.798L447.21 199.471C450.541 201.119 453.392 201.806 456.552 201.806C459.917 201.806 461.806 201.016 461.806 199.539C461.806 195.384 447.073 198.99 447.073 191.022ZM469.925 185.768H475.179V205H469.925V185.768ZM469.959 178.04H475.213V183.295H469.959V178.04ZM478.594 194.731C478.594 189.271 482.681 185.184 488.004 185.184C491.232 185.184 494.152 186.695 495.731 188.824V185.768H500.883V202.184C500.883 210.22 494.701 212.727 488.313 212.727C485.428 212.727 482.647 212.212 480.311 211.182L479.762 206.82C482.441 207.988 485.119 208.572 487.798 208.572C492.503 208.572 495.731 206.717 495.731 202.527V200.192C494.083 202.974 491.164 204.485 488.004 204.485C482.715 204.485 478.594 200.261 478.594 194.731ZM483.883 194.903C483.883 198.337 486.253 200.776 489.927 200.776C493.362 200.776 495.903 198.612 495.903 195.349V195.006C495.903 191.263 493.396 188.893 489.927 188.893C486.321 188.893 483.883 191.434 483.883 194.903ZM504.704 205V185.768H509.856V189.923C511.367 186.729 513.908 185.184 517.651 185.184C522.563 185.184 525.31 187.897 525.31 192.705V205H520.159V193.735C520.159 190.919 518.373 189.202 515.453 189.202C513.015 189.202 511.161 190.37 509.856 192.808V205H504.704Z" fill="#9E9E9E"/>
<path d="M65.2206 76.6368C60.891 76.7811 58.3293 82.2292 58.3293 90.3472C58.3293 98.393 60.891 103.913 65.2206 104.058V108.387C57.7159 108.279 52.9173 101.279 52.9173 90.3472C52.9173 79.3428 57.7159 72.4154 65.2206 72.3072V76.6368ZM66.6601 84.5744V80.4252H70.8815V80.1366C70.8815 75.0854 74.5616 72.1268 80.8035 72.1268C83.2569 72.1268 85.3495 72.4515 87.4783 73.101L87.6587 77.3945C85.7464 76.709 83.8703 76.4564 81.8137 76.4564C78.1696 76.4564 76.2935 77.5749 76.2935 80.2448V80.4252H85.4217V84.5744H76.2935V100.63H70.8815V84.5744H66.6601ZM87.5048 95.7953C87.5048 91.141 92.2312 88.8679 101.973 88.8679H103.308V88.1824C103.308 85.4764 101.107 83.961 97.2103 83.961C94.7208 83.961 92.5199 84.4662 89.1644 85.729V81.7602C91.8344 80.4974 94.4682 79.8118 97.7515 79.8118C104.715 79.8118 108.612 82.9508 108.612 88.5793V100.63H103.344V97.022C101.396 99.5476 98.437 101.279 94.5043 101.279C90.1025 101.279 87.5048 99.2229 87.5048 95.7953ZM92.6642 95.0376C92.6642 96.4808 94.0352 97.3467 96.2 97.3467C98.5092 97.3467 100.927 96.4086 103.308 94.6046V92.1151H102.117C95.0816 92.1151 92.6642 93.1254 92.6642 95.0376ZM133.901 80.4252V100.63H128.489V96.4086C126.937 99.7641 124.34 101.388 120.515 101.388C115.356 101.388 112.469 98.5374 112.469 93.4862V80.4252H117.881V92.4038C117.881 95.3623 119.757 97.1663 122.824 97.1663C125.242 97.1663 127.118 95.9396 128.489 93.414V80.4252H133.901ZM137.723 85.9454C137.723 81.9045 141.475 79.8118 148.294 79.8118C151.758 79.8118 154.392 80.2809 156.701 81.1107L156.918 85.5125C154.248 84.4662 151.506 83.8889 148.114 83.8889C144.506 83.8889 142.702 84.6105 142.702 85.9454C142.702 89.9142 158.289 85.8733 158.289 94.9294C158.289 99.295 154.608 101.388 148.042 101.388C144.398 101.388 141.223 100.774 138.192 99.3672L137.867 94.8211C141.367 96.553 144.362 97.2746 147.681 97.2746C151.217 97.2746 153.201 96.4447 153.201 94.8933C153.201 90.5276 137.723 94.316 137.723 85.9454ZM164.256 94.3882V84.5744H159.89V80.4252H164.364V77.2502L169.668 73.57V80.4252H179.193V84.5744H169.668V92.5842C169.668 95.4345 171.544 96.9138 174.972 96.9138C176.198 96.9138 178.038 96.7334 180.167 95.9396L179.446 100.125C177.461 100.955 175.405 101.388 173.312 101.388C167.828 101.388 164.256 98.357 164.256 94.3882ZM183.61 104.058C187.94 103.913 190.501 98.4652 190.501 90.3472C190.501 82.3014 187.94 76.7811 183.61 76.6368V72.3072C191.115 72.4154 195.913 79.415 195.913 90.3472C195.913 101.352 191.115 108.279 183.61 108.387V104.058Z" fill="#838383"/>
<path d="M53.5173 266.532V240.774H70.8951C76.9396 240.774 79.5153 244.587 79.5153 248.845C79.5153 254.34 75.2224 256.916 70.8951 256.916H59.0123V266.532H53.5173ZM69.1779 252.451C72.6123 252.451 74.0204 251.387 74.0204 248.845C74.0204 246.304 72.5093 245.239 68.9375 245.239H59.0123V252.451H69.1779ZM82.7884 239.572H87.9399V266.532H82.7884V239.572ZM91.1865 261.93C91.1865 257.5 95.6855 255.336 104.958 255.336H106.229V254.684C106.229 252.108 104.134 250.665 100.425 250.665C98.0552 250.665 95.9602 251.146 92.7663 252.348V248.57C95.3077 247.368 97.8148 246.716 100.94 246.716C107.568 246.716 111.277 249.704 111.277 255.061V266.532H106.263V263.098C104.409 265.502 101.593 267.15 97.8491 267.15C93.6592 267.15 91.1865 265.193 91.1865 261.93ZM96.0976 261.209C96.0976 262.583 97.4026 263.407 99.4632 263.407C101.661 263.407 103.962 262.514 106.229 260.797V258.427H105.096C98.3986 258.427 96.0976 259.389 96.0976 261.209ZM117.491 260.591V251.249H113.335V247.3H117.594V244.277L122.642 240.774V247.3H131.709V251.249H122.642V258.873C122.642 261.587 124.428 262.995 127.691 262.995C128.859 262.995 130.61 262.823 132.636 262.067L131.949 266.051C130.061 266.841 128.103 267.253 126.111 267.253C120.891 267.253 117.491 264.368 117.491 260.591ZM134.196 251.249V247.3H138.214V247.025C138.214 242.217 141.717 239.401 147.659 239.401C149.994 239.401 151.986 239.71 154.012 240.328L154.184 244.415C152.364 243.762 150.578 243.522 148.621 243.522C145.152 243.522 143.366 244.587 143.366 247.128V247.3H152.055V251.249H143.366V266.532H138.214V251.249H134.196ZM165.375 267.253C158.369 267.253 153.87 263.132 153.87 257.019C153.87 250.803 158.403 246.716 165.375 246.716C172.381 246.716 176.88 250.803 176.88 257.019C176.88 263.132 172.381 267.253 165.375 267.253ZM165.375 263.098C169.05 263.098 171.591 260.728 171.591 257.019C171.591 253.241 169.05 250.837 165.375 250.837C161.7 250.837 159.159 253.241 159.159 257.019C159.159 260.728 161.7 263.098 165.375 263.098ZM180.185 266.532V247.3H185.199V251.799C186.745 248.536 189.801 247.025 192.927 247.025C193.407 247.025 193.888 247.059 194.369 247.128V252.211C193.201 251.902 192.102 251.764 191.072 251.764C188.771 251.764 186.779 252.52 185.337 253.962V266.532H180.185ZM197.156 266.532V247.3H202.307V251.455C203.784 248.193 206.016 246.716 209.382 246.716C213.194 246.716 215.667 248.536 216.457 251.764C217.968 248.33 220.303 246.716 223.806 246.716C228.477 246.716 231.156 249.463 231.156 254.237V266.532H226.004V255.267C226.004 252.486 224.253 250.734 221.539 250.734C219.479 250.734 218.036 251.764 216.731 254.306V266.532H211.58V255.267C211.58 252.486 209.828 250.734 207.115 250.734C205.055 250.734 203.612 251.764 202.307 254.306V266.532H197.156Z" fill="white"/>
<path d="M246.336 256.95C246.336 250.7 250.594 246.716 257.223 246.716C263.37 246.716 267.457 250.219 267.457 255.645V258.118H251.419C252.105 261.277 254.956 263.132 259.558 263.132C262.134 263.132 264.641 262.617 267.423 261.758L266.907 265.742C264.744 266.635 262.031 267.253 258.871 267.253C251.281 267.253 246.336 263.201 246.336 256.95ZM262.683 255.027C262.546 252.039 260.657 250.562 257.188 250.562C253.617 250.562 251.556 252.108 251.35 255.027H262.683ZM270.739 266.532V247.3H275.891V251.455C277.402 248.261 279.943 246.716 283.687 246.716C288.598 246.716 291.345 249.429 291.345 254.237V266.532H286.194V255.267C286.194 252.451 284.408 250.734 281.489 250.734C279.05 250.734 277.196 251.902 275.891 254.34V266.532H270.739ZM294.669 256.263C294.669 250.803 298.756 246.716 304.079 246.716C307.307 246.716 310.226 248.227 311.806 250.356V247.3H316.958V263.716C316.958 271.752 310.776 274.259 304.388 274.259C301.503 274.259 298.721 273.744 296.386 272.714L295.836 268.352C298.515 269.52 301.194 270.104 303.873 270.104C308.578 270.104 311.806 268.249 311.806 264.059V261.724C310.158 264.506 307.238 266.017 304.079 266.017C298.79 266.017 294.669 261.793 294.669 256.263ZM299.958 256.435C299.958 259.869 302.327 262.308 306.002 262.308C309.436 262.308 311.978 260.144 311.978 256.882V256.538C311.978 252.795 309.471 250.425 306.002 250.425C302.396 250.425 299.958 252.966 299.958 256.435ZM320.779 247.3H326.033V266.532H320.779V247.3ZM320.813 239.572H326.068V244.827H320.813V239.572ZM330.169 266.532V247.3H335.321V251.455C336.832 248.261 339.373 246.716 343.117 246.716C348.028 246.716 350.776 249.429 350.776 254.237V266.532H345.624V255.267C345.624 252.451 343.838 250.734 340.919 250.734C338.481 250.734 336.626 251.902 335.321 254.34V266.532H330.169ZM353.927 256.95C353.927 250.7 358.186 246.716 364.814 246.716C370.962 246.716 375.049 250.219 375.049 255.645V258.118H359.01C359.697 261.277 362.548 263.132 367.15 263.132C369.725 263.132 372.232 262.617 375.014 261.758L374.499 265.742C372.335 266.635 369.622 267.253 366.463 267.253C358.873 267.253 353.927 263.201 353.927 256.95ZM370.275 255.027C370.137 252.039 368.249 250.562 364.78 250.562C361.208 250.562 359.148 252.108 358.942 255.027H370.275ZM377.438 256.95C377.438 250.7 381.696 246.716 388.325 246.716C394.472 246.716 398.559 250.219 398.559 255.645V258.118H382.521C383.208 261.277 386.058 263.132 390.66 263.132C393.236 263.132 395.743 262.617 398.525 261.758L398.01 265.742C395.846 266.635 393.133 267.253 389.973 267.253C382.383 267.253 377.438 263.201 377.438 256.95ZM393.785 255.027C393.648 252.039 391.759 250.562 388.29 250.562C384.719 250.562 382.658 252.108 382.452 255.027H393.785ZM401.841 266.532V247.3H406.855V251.799C408.401 248.536 411.457 247.025 414.583 247.025C415.064 247.025 415.544 247.059 416.025 247.128V252.211C414.857 251.902 413.759 251.764 412.728 251.764C410.427 251.764 408.435 252.52 406.993 253.962V266.532H401.841ZM418.812 247.3H424.066V266.532H418.812V247.3ZM418.846 239.572H424.101V244.827H418.846V239.572ZM428.203 266.532V247.3H433.354V251.455C434.865 248.261 437.407 246.716 441.15 246.716C446.061 246.716 448.809 249.429 448.809 254.237V266.532H443.657V255.267C443.657 252.451 441.871 250.734 438.952 250.734C436.514 250.734 434.659 251.902 433.354 254.34V266.532H428.203ZM452.132 256.263C452.132 250.803 456.219 246.716 461.542 246.716C464.771 246.716 467.69 248.227 469.27 250.356V247.3H474.421V263.716C474.421 271.752 468.239 274.259 461.851 274.259C458.967 274.259 456.185 273.744 453.849 272.714L453.3 268.352C455.979 269.52 458.657 270.104 461.336 270.104C466.041 270.104 469.27 268.249 469.27 264.059V261.724C467.621 264.506 464.702 266.017 461.542 266.017C456.253 266.017 452.132 261.793 452.132 256.263ZM457.421 256.435C457.421 259.869 459.791 262.308 463.466 262.308C466.9 262.308 469.441 260.144 469.441 256.882V256.538C469.441 252.795 466.934 250.425 463.466 250.425C459.86 250.425 457.421 252.966 457.421 256.435Z" fill="#9E9E9E"/>
<path d="M53.5173 328.064V302.306H70.8951C76.9396 302.306 79.5153 306.119 79.5153 310.377C79.5153 315.872 75.2224 318.448 70.8951 318.448H59.0123V328.064H53.5173ZM69.1779 313.983C72.6123 313.983 74.0204 312.919 74.0204 310.377C74.0204 307.836 72.5093 306.771 68.9375 306.771H59.0123V313.983H69.1779ZM82.8228 328.064V308.832H87.8369V313.331C89.3824 310.068 92.4389 308.557 95.5642 308.557C96.045 308.557 96.5258 308.591 97.0066 308.66V313.743C95.8389 313.434 94.7399 313.296 93.7096 313.296C91.4086 313.296 89.4167 314.052 87.9743 315.494V328.064H82.8228ZM110.07 328.785C103.064 328.785 98.5649 324.664 98.5649 318.551C98.5649 312.335 103.098 308.248 110.07 308.248C117.076 308.248 121.575 312.335 121.575 318.551C121.575 324.664 117.076 328.785 110.07 328.785ZM110.07 324.63C113.745 324.63 116.286 322.26 116.286 318.551C116.286 314.773 113.745 312.369 110.07 312.369C106.395 312.369 103.854 314.773 103.854 318.551C103.854 322.26 106.395 324.63 110.07 324.63ZM133.603 308.248C136.969 308.248 139.888 309.759 141.468 312.403V301.104H146.619V328.064H141.468V324.252C139.648 327.24 136.9 328.785 133.603 328.785C128.108 328.785 123.987 324.527 123.987 318.448C123.987 312.3 128.074 308.248 133.603 308.248ZM135.458 312.335C131.714 312.335 129.276 314.808 129.276 318.517C129.276 322.226 131.714 324.698 135.458 324.698C139.167 324.698 141.64 322.26 141.64 318.62V318.276C141.64 314.704 139.133 312.335 135.458 312.335ZM171.37 308.832V328.064H166.218V324.046C164.742 327.24 162.269 328.785 158.628 328.785C153.717 328.785 150.97 326.072 150.97 321.264V308.832H156.121V320.234C156.121 323.05 157.907 324.767 160.826 324.767C163.127 324.767 164.913 323.599 166.218 321.195V308.832H171.37ZM186.238 308.248C188.883 308.248 191.218 308.763 193.76 309.931L193.931 314.224C191.253 312.919 189.089 312.369 186.891 312.369C182.529 312.369 179.919 314.636 179.919 318.414C179.919 322.123 182.598 324.527 187.303 324.527C189.707 324.527 192.489 323.874 194.309 322.741L193.966 326.999C191.836 328.201 189.364 328.785 186.273 328.785C179.095 328.785 174.63 324.836 174.63 318.482C174.63 312.163 179.061 308.248 186.238 308.248ZM199.828 322.123V312.781H195.672V308.832H199.931V305.81L204.979 302.306V308.832H214.046V312.781H204.979V320.405C204.979 323.119 206.765 324.527 210.028 324.527C211.196 324.527 212.947 324.355 214.973 323.599L214.287 327.583C212.398 328.373 210.44 328.785 208.448 328.785C203.228 328.785 199.828 325.9 199.828 322.123Z" fill="white"/>
<path d="M239.015 308.248C242.381 308.248 245.3 309.759 246.88 312.403V301.104H252.031V328.064H246.88V324.252C245.059 327.24 242.312 328.785 239.015 328.785C233.52 328.785 229.399 324.527 229.399 318.448C229.399 312.3 233.486 308.248 239.015 308.248ZM240.869 312.335C237.126 312.335 234.688 314.808 234.688 318.517C234.688 322.226 237.126 324.698 240.869 324.698C244.579 324.698 247.051 322.26 247.051 318.62V318.276C247.051 314.704 244.544 312.335 240.869 312.335ZM255.626 318.482C255.626 312.232 259.884 308.248 266.513 308.248C272.66 308.248 276.747 311.751 276.747 317.177V319.65H260.709C261.396 322.81 264.246 324.664 268.848 324.664C271.424 324.664 273.931 324.149 276.713 323.29L276.198 327.274C274.034 328.167 271.321 328.785 268.161 328.785C260.571 328.785 255.626 324.733 255.626 318.482ZM271.973 316.559C271.836 313.571 269.947 312.094 266.478 312.094C262.907 312.094 260.846 313.64 260.64 316.559H271.973ZM278.621 308.832H284.494L290.47 323.531L296.411 308.832L302.147 308.866L293.492 328.064H287.276L278.621 308.832ZM302.815 318.482C302.815 312.232 307.073 308.248 313.701 308.248C319.849 308.248 323.936 311.751 323.936 317.177V319.65H307.897C308.584 322.81 311.435 324.664 316.037 324.664C318.613 324.664 321.12 324.149 323.902 323.29L323.386 327.274C321.223 328.167 318.51 328.785 315.35 328.785C307.76 328.785 302.815 324.733 302.815 318.482ZM319.162 316.559C319.025 313.571 317.136 312.094 313.667 312.094C310.095 312.094 308.035 313.64 307.829 316.559H319.162ZM327.184 301.104H332.335V328.064H327.184V301.104ZM347.087 328.785C340.081 328.785 335.582 324.664 335.582 318.551C335.582 312.335 340.115 308.248 347.087 308.248C354.093 308.248 358.592 312.335 358.592 318.551C358.592 324.664 354.093 328.785 347.087 328.785ZM347.087 324.63C350.762 324.63 353.303 322.26 353.303 318.551C353.303 314.773 350.762 312.369 347.087 312.369C343.412 312.369 340.871 314.773 340.871 318.551C340.871 322.26 343.412 324.63 347.087 324.63ZM374.913 328.785C371.547 328.785 368.628 327.274 367.048 324.63V335.448H361.897V308.832H367.048V312.781C368.869 309.793 371.616 308.248 374.913 308.248C380.408 308.248 384.529 312.506 384.529 318.585C384.529 324.733 380.442 328.785 374.913 328.785ZM373.059 324.698C376.802 324.698 379.24 322.226 379.24 318.517C379.24 314.808 376.802 312.335 373.059 312.335C369.349 312.335 366.877 314.773 366.877 318.414V318.757C366.877 322.329 369.384 324.698 373.059 324.698ZM387.822 328.064V308.832H392.974V312.987C394.45 309.725 396.683 308.248 400.048 308.248C403.861 308.248 406.333 310.068 407.123 313.296C408.634 309.862 410.97 308.248 414.473 308.248C419.143 308.248 421.822 310.995 421.822 315.769V328.064H416.671V316.799C416.671 314.018 414.919 312.266 412.206 312.266C410.145 312.266 408.703 313.296 407.398 315.838V328.064H402.246V316.799C402.246 314.018 400.495 312.266 397.782 312.266C395.721 312.266 394.279 313.296 392.974 315.838V328.064H387.822ZM424.996 318.482C424.996 312.232 429.254 308.248 435.882 308.248C442.03 308.248 446.117 311.751 446.117 317.177V319.65H430.078C430.765 322.81 433.616 324.664 438.218 324.664C440.794 324.664 443.301 324.149 446.082 323.29L445.567 327.274C443.404 328.167 440.69 328.785 437.531 328.785C429.941 328.785 424.996 324.733 424.996 318.482ZM441.343 316.559C441.206 313.571 439.317 312.094 435.848 312.094C432.276 312.094 430.216 313.64 430.01 316.559H441.343ZM449.399 328.064V308.832H454.55V312.987C456.062 309.793 458.603 308.248 462.346 308.248C467.258 308.248 470.005 310.961 470.005 315.769V328.064H464.853V316.799C464.853 313.983 463.068 312.266 460.148 312.266C457.71 312.266 455.856 313.434 454.55 315.872V328.064H449.399ZM476.454 322.123V312.781H472.298V308.832H476.557V305.81L481.605 302.306V308.832H490.672V312.781H481.605V320.405C481.605 323.119 483.391 324.527 486.654 324.527C487.822 324.527 489.573 324.355 491.599 323.599L490.912 327.583C489.024 328.373 487.066 328.785 485.074 328.785C479.854 328.785 476.454 325.9 476.454 322.123Z" fill="#9E9E9E"/>
<path d="M52.3039 478.772V465.891H53.9275V478.772H52.3039ZM60.2718 478.952C59.4179 478.952 58.6482 478.76 57.9627 478.375C57.2772 477.978 56.736 477.443 56.3391 476.769C55.9422 476.096 55.7438 475.332 55.7438 474.478C55.7438 473.636 55.9362 472.879 56.3211 472.205C56.7179 471.532 57.2471 471.002 57.9086 470.618C58.5821 470.221 59.3337 470.022 60.1636 470.022C60.9573 470.022 61.6549 470.203 62.2562 470.563C62.8696 470.924 63.3446 471.423 63.6814 472.061C64.0302 472.698 64.2045 473.42 64.2045 474.226C64.2045 474.346 64.1985 474.478 64.1865 474.622C64.1745 474.755 64.1504 474.911 64.1143 475.092H56.8803V473.739H63.2484L62.6531 474.262C62.6531 473.684 62.5509 473.197 62.3464 472.8C62.142 472.392 61.8533 472.079 61.4805 471.862C61.1077 471.634 60.6567 471.52 60.1275 471.52C59.5743 471.52 59.0872 471.64 58.6663 471.88C58.2453 472.121 57.9206 472.458 57.6921 472.891C57.4636 473.324 57.3493 473.835 57.3493 474.424C57.3493 475.025 57.4696 475.555 57.7101 476.012C57.9507 476.457 58.2934 476.805 58.7384 477.058C59.1834 477.298 59.6945 477.419 60.2718 477.419C60.7529 477.419 61.1919 477.334 61.5887 477.166C61.9977 476.998 62.3464 476.745 62.6351 476.408L63.6814 477.473C63.2725 477.954 62.7674 478.321 62.166 478.573C61.5767 478.826 60.9453 478.952 60.2718 478.952ZM69.8895 478.952C69.0477 478.952 68.29 478.754 67.6165 478.357C66.943 477.96 66.4078 477.425 66.0109 476.751C65.6141 476.066 65.4156 475.302 65.4156 474.46C65.4156 473.63 65.6141 472.885 66.0109 472.223C66.4078 471.55 66.943 471.014 67.6165 470.618C68.29 470.221 69.0477 470.022 69.8895 470.022C70.7194 470.022 71.471 470.221 72.1445 470.618C72.8301 471.002 73.3713 471.532 73.7681 472.205C74.165 472.879 74.3635 473.63 74.3635 474.46C74.3635 475.302 74.165 476.066 73.7681 476.751C73.3713 477.425 72.8301 477.96 72.1445 478.357C71.471 478.754 70.7194 478.952 69.8895 478.952ZM69.8895 477.383C70.4307 477.383 70.9118 477.256 71.3327 477.004C71.7537 476.751 72.0844 476.408 72.3249 475.975C72.5655 475.53 72.6857 475.025 72.6857 474.46C72.6857 473.907 72.5595 473.414 72.3069 472.981C72.0664 472.548 71.7356 472.211 71.3147 471.971C70.9058 471.718 70.4307 471.592 69.8895 471.592C69.3483 471.592 68.8673 471.718 68.4463 471.971C68.0254 472.211 67.6947 472.548 67.4541 472.981C67.2136 473.414 67.0933 473.907 67.0933 474.46C67.0933 475.025 67.2136 475.53 67.4541 475.975C67.6947 476.408 68.0254 476.751 68.4463 477.004C68.8673 477.256 69.3483 477.383 69.8895 477.383ZM82.2543 478.772V473.775C82.2543 473.125 82.0498 472.59 81.6409 472.169C81.232 471.748 80.7028 471.538 80.0534 471.538C79.6204 471.538 79.2356 471.634 78.8988 471.826C78.5621 472.019 78.2975 472.283 78.1051 472.62C77.9126 472.957 77.8164 473.342 77.8164 473.775L77.1489 473.396C77.1489 472.746 77.2933 472.169 77.5819 471.664C77.8705 471.159 78.2734 470.762 78.7906 470.473C79.3077 470.173 79.891 470.022 80.5405 470.022C81.1899 470.022 81.7612 470.185 82.2543 470.509C82.7594 470.834 83.1563 471.261 83.4449 471.79C83.7336 472.307 83.8779 472.861 83.8779 473.45V478.772H82.2543ZM76.1928 478.772V470.203H77.8164V478.772H76.1928ZM87.1971 478.772V468.922C87.1971 468.284 87.3354 467.731 87.612 467.262C87.8886 466.781 88.2675 466.402 88.7485 466.126C89.2416 465.849 89.8129 465.711 90.4623 465.711C90.9554 465.711 91.3824 465.795 91.7432 465.963C92.104 466.132 92.4347 466.378 92.7354 466.703L91.671 467.749C91.5147 467.581 91.3403 467.455 91.1478 467.37C90.9554 467.274 90.7209 467.226 90.4443 467.226C89.9271 467.226 89.5242 467.376 89.2356 467.677C88.959 467.978 88.8207 468.393 88.8207 468.922V478.772H87.1971ZM85.0864 471.682V470.203H91.5447V471.682H85.0864ZM96.3266 478.952C95.5449 478.952 94.8353 478.76 94.1979 478.375C93.5605 477.978 93.0553 477.443 92.6825 476.769C92.3217 476.096 92.1413 475.338 92.1413 474.496C92.1413 473.654 92.3217 472.897 92.6825 472.223C93.0553 471.55 93.5545 471.014 94.1798 470.618C94.8173 470.221 95.5328 470.022 96.3266 470.022C96.976 470.022 97.5533 470.161 98.0584 470.437C98.5756 470.702 98.9905 471.075 99.3032 471.556C99.6159 472.025 99.7903 472.572 99.8264 473.197V475.777C99.7903 476.39 99.6159 476.938 99.3032 477.419C99.0025 477.9 98.5936 478.279 98.0765 478.555C97.5714 478.82 96.9881 478.952 96.3266 478.952ZM96.5972 477.419C97.403 477.419 98.0524 477.148 98.5455 476.607C99.0386 476.054 99.2852 475.35 99.2852 474.496C99.2852 473.907 99.1709 473.396 98.9424 472.963C98.7259 472.518 98.4132 472.175 98.0043 471.935C97.5954 471.682 97.1204 471.556 96.5792 471.556C96.038 471.556 95.5569 471.682 95.136 471.935C94.7271 472.187 94.4023 472.536 94.1618 472.981C93.9333 473.414 93.819 473.913 93.819 474.478C93.819 475.055 93.9333 475.567 94.1618 476.012C94.4023 476.445 94.7331 476.787 95.154 477.04C95.5749 477.292 96.056 477.419 96.5972 477.419ZM99.1769 478.772V476.463L99.4836 474.37L99.1769 472.295V470.203H100.819V478.772H99.1769ZM106.628 478.952C105.93 478.952 105.299 478.796 104.734 478.483C104.181 478.158 103.748 477.713 103.435 477.148C103.122 476.583 102.966 475.927 102.966 475.182V470.203H104.589V475.11C104.589 475.579 104.668 475.987 104.824 476.336C104.992 476.673 105.233 476.932 105.546 477.112C105.858 477.292 106.225 477.383 106.646 477.383C107.283 477.383 107.783 477.184 108.143 476.787C108.504 476.378 108.685 475.819 108.685 475.11V470.203H110.308V475.182C110.308 475.927 110.152 476.583 109.839 477.148C109.526 477.713 109.093 478.158 108.54 478.483C107.999 478.796 107.362 478.952 106.628 478.952ZM115.208 478.952C114.727 478.952 114.27 478.892 113.837 478.772C113.416 478.639 113.025 478.459 112.665 478.23C112.304 477.99 111.991 477.707 111.727 477.383L112.773 476.336C113.086 476.721 113.446 477.01 113.855 477.202C114.264 477.383 114.721 477.473 115.226 477.473C115.731 477.473 116.122 477.389 116.399 477.22C116.676 477.04 116.814 476.793 116.814 476.481C116.814 476.168 116.7 475.927 116.471 475.759C116.255 475.579 115.972 475.434 115.623 475.326C115.274 475.206 114.902 475.092 114.505 474.983C114.12 474.863 113.753 474.713 113.404 474.532C113.056 474.352 112.767 474.105 112.538 473.793C112.322 473.48 112.214 473.065 112.214 472.548C112.214 472.031 112.34 471.586 112.592 471.213C112.845 470.828 113.194 470.533 113.639 470.329C114.096 470.124 114.643 470.022 115.28 470.022C115.954 470.022 116.549 470.143 117.066 470.383C117.596 470.612 118.029 470.96 118.365 471.429L117.319 472.476C117.078 472.163 116.778 471.922 116.417 471.754C116.068 471.586 115.671 471.502 115.226 471.502C114.757 471.502 114.396 471.586 114.144 471.754C113.903 471.91 113.783 472.133 113.783 472.422C113.783 472.71 113.891 472.933 114.108 473.089C114.324 473.245 114.607 473.378 114.956 473.486C115.317 473.594 115.689 473.708 116.074 473.829C116.459 473.937 116.826 474.087 117.175 474.28C117.523 474.472 117.806 474.731 118.023 475.055C118.251 475.38 118.365 475.807 118.365 476.336C118.365 477.142 118.077 477.779 117.499 478.249C116.934 478.718 116.17 478.952 115.208 478.952ZM121.5 478.772V466.613H123.123V478.772H121.5ZM119.389 471.682V470.203H125.234V471.682H119.389ZM127.633 478.952C127.296 478.952 127.014 478.838 126.785 478.609C126.569 478.369 126.461 478.086 126.461 477.761C126.461 477.425 126.569 477.148 126.785 476.932C127.014 476.703 127.296 476.589 127.633 476.589C127.97 476.589 128.247 476.703 128.463 476.932C128.692 477.148 128.806 477.425 128.806 477.761C128.806 478.086 128.692 478.369 128.463 478.609C128.247 478.838 127.97 478.952 127.633 478.952ZM135.003 478.952C134.161 478.952 133.397 478.754 132.712 478.357C132.038 477.96 131.503 477.425 131.106 476.751C130.721 476.066 130.529 475.308 130.529 474.478C130.529 473.636 130.721 472.879 131.106 472.205C131.503 471.532 132.038 471.002 132.712 470.618C133.397 470.221 134.161 470.022 135.003 470.022C135.664 470.022 136.277 470.149 136.843 470.401C137.408 470.642 137.895 470.996 138.304 471.465L137.222 472.548C136.957 472.235 136.632 472.001 136.247 471.844C135.875 471.676 135.46 471.592 135.003 471.592C134.461 471.592 133.98 471.718 133.559 471.971C133.139 472.211 132.808 472.548 132.567 472.981C132.327 473.414 132.206 473.913 132.206 474.478C132.206 475.043 132.327 475.543 132.567 475.975C132.808 476.408 133.139 476.751 133.559 477.004C133.98 477.256 134.461 477.383 135.003 477.383C135.46 477.383 135.875 477.304 136.247 477.148C136.632 476.98 136.963 476.739 137.24 476.426L138.304 477.509C137.907 477.966 137.42 478.321 136.843 478.573C136.277 478.826 135.664 478.952 135.003 478.952ZM143.653 478.952C142.811 478.952 142.053 478.754 141.38 478.357C140.706 477.96 140.171 477.425 139.774 476.751C139.377 476.066 139.179 475.302 139.179 474.46C139.179 473.63 139.377 472.885 139.774 472.223C140.171 471.55 140.706 471.014 141.38 470.618C142.053 470.221 142.811 470.022 143.653 470.022C144.483 470.022 145.234 470.221 145.908 470.618C146.593 471.002 147.134 471.532 147.531 472.205C147.928 472.879 148.127 473.63 148.127 474.46C148.127 475.302 147.928 476.066 147.531 476.751C147.134 477.425 146.593 477.96 145.908 478.357C145.234 478.754 144.483 478.952 143.653 478.952ZM143.653 477.383C144.194 477.383 144.675 477.256 145.096 477.004C145.517 476.751 145.848 476.408 146.088 475.975C146.329 475.53 146.449 475.025 146.449 474.46C146.449 473.907 146.323 473.414 146.07 472.981C145.83 472.548 145.499 472.211 145.078 471.971C144.669 471.718 144.194 471.592 143.653 471.592C143.112 471.592 142.63 471.718 142.21 471.971C141.789 472.211 141.458 472.548 141.217 472.981C140.977 473.414 140.857 473.907 140.857 474.46C140.857 475.025 140.977 475.53 141.217 475.975C141.458 476.408 141.789 476.751 142.21 477.004C142.63 477.256 143.112 477.383 143.653 477.383ZM149.956 478.772V470.203H151.58V478.772H149.956ZM155.747 478.772V473.594C155.747 472.957 155.548 472.458 155.152 472.097C154.767 471.724 154.28 471.538 153.69 471.538C153.293 471.538 152.939 471.622 152.626 471.79C152.313 471.959 152.061 472.193 151.868 472.494C151.676 472.794 151.58 473.155 151.58 473.576L150.912 473.251C150.912 472.602 151.05 472.037 151.327 471.556C151.616 471.075 152.007 470.702 152.5 470.437C152.993 470.161 153.546 470.022 154.159 470.022C154.761 470.022 155.302 470.155 155.783 470.419C156.276 470.684 156.661 471.057 156.937 471.538C157.226 472.019 157.37 472.59 157.37 473.251V478.772H155.747ZM161.538 478.772V473.594C161.538 472.957 161.339 472.458 160.942 472.097C160.558 471.724 160.076 471.538 159.499 471.538C159.102 471.538 158.741 471.622 158.417 471.79C158.104 471.959 157.852 472.193 157.659 472.494C157.467 472.794 157.37 473.155 157.37 473.576L156.45 473.251C156.486 472.59 156.661 472.025 156.974 471.556C157.298 471.075 157.713 470.702 158.218 470.437C158.723 470.161 159.277 470.022 159.878 470.022C160.503 470.022 161.063 470.155 161.556 470.419C162.049 470.684 162.44 471.057 162.728 471.538C163.029 472.019 163.179 472.596 163.179 473.269V478.772H161.538Z" fill="#9E9E9E"/>
<path d="M610.354 213.92C653.924 196.492 712.377 209.438 750.909 232.758C785.032 253.409 813.404 285.11 825.823 323.322C832.558 344.045 832.23 385.805 798.147 375.631C764.909 365.709 739.944 329.308 723.667 301.441C705.671 270.631 681.92 224.228 691.354 186.679C699.648 153.665 736.898 131.58 765.689 119.444C804.949 102.895 841.24 109.059 872.337 137.992C886.875 151.518 942.039 232.578 889.725 237.105C869 238.898 846.065 221.475 831.329 209.573C807.045 189.959 797.68 168.805 805.827 137.847C815.381 101.539 852.877 63.7609 891.754 59.0199C911.042 56.6676 932.814 64.9757 938.992 83.5083" stroke="white" stroke-width="45.8517" stroke-linecap="square"/>
<rect width="154.509" height="12.7783" fill="#98F500"/>
<rect x="154.509" width="154.509" height="12.7783" fill="#FF645C"/>
<rect x="309.019" width="154.509" height="12.7783" fill="#5FFFC5"/>
<rect x="463.528" width="154.509" height="12.7783" fill="#FF0ACB"/>
<rect x="618.037" width="70.9907" height="12.7783" fill="#98F500"/>
<rect x="689.028" width="70.9907" height="12.7783" fill="#FF645C"/>
<rect x="760.019" width="70.9907" height="12.7783" fill="#5FFFC5"/>
<rect x="831.009" width="70.9907" height="12.7783" fill="#FF0ACB"/>
</g>
<defs>
<clipPath id="clip0_390_19">
<rect width="902" height="507.375" fill="white"/>
</clipPath>
</defs>
</svg>
